<svg width="148" height="148" viewBox="0 0 148 148" fill="none" xmlns="http://www.w3.org/2000/svg">
<rect width="36" height="36" fill="url(#paint0_linear_2108_6)"/>
<path d="M36 36L76 0V36H36Z" fill="#FFEDAB" fill-opacity="0.8"/>
<rect x="38" y="74" width="36" height="36" fill="url(#paint1_linear_2108_6)"/>
<rect x="76" y="36" width="36" height="36" fill="#FFEDAB" fill-opacity="0.8"/>
<path d="M76 0H112V36H76V0Z" fill="#FFE06D"/>
<path d="M112 0H143C145.761 0 148 2.23858 148 5V36H112V0Z" fill="#FFE06D"/>
<path d="M112 36H148V72H112V36Z" fill="#FFE06D"/>
<path d="M112 72H148L112 112V72Z" fill="#FFEDAB" fill-opacity="0.8"/>
<rect x="112" y="112" width="36" height="36" fill="url(#paint2_linear_2108_6)"/>
<defs>
<linearGradient id="paint0_linear_2108_6" x1="0" y1="36" x2="36" y2="0" gradientUnits="userSpaceOnUse">
<stop stop-color="#FFEDAB"/>
<stop offset="1" stop-color="#FFEDAB" stop-opacity="0.2"/>
</linearGradient>
<linearGradient id="paint1_linear_2108_6" x1="74" y1="74" x2="38" y2="110" gradientUnits="userSpaceOnUse">
<stop stop-color="#FFEDAB"/>
<stop offset="1" stop-color="#FFEDAB" stop-opacity="0.2"/>
</linearGradient>
<linearGradient id="paint2_linear_2108_6" x1="112" y1="148" x2="148" y2="112" gradientUnits="userSpaceOnUse">
<stop stop-color="#FFEDAB"/>
<stop offset="1" stop-color="#FFEDAB" stop-opacity="0.2"/>
</linearGradient>
</defs>
</svg>
